#!OML:ASF F:\VICON\USERDATA\INSTALL\rory3\rory3.ASF
:FULLY-SPECIFIED
:DEGREES
2503
root 0.854002 19.1378 2.46584 -6.63491 22.865 -19.3135
lowerback 4.34296 5.55211 0.190119
upperback -0.620212 7.26817 -6.15642
thorax -2.23617 3.60853 -6.92354
lowerneck -12.2568 -6.30428 -4.92544
upperneck -2.37095 -8.1104 17.8297
head 2.33993 -3.48377 5.75273
rclavicle -9.38264e-014 -1.59028e-014
rhumerus 48.8852 -7.36838 -15.9714
rradius 57.8092
rwrist 38.1538
rhand -52.1489 380.385
rfingers 7.12502
rthumb -24.6502 -8.04749
lclavicle -9.38264e-014 -1.59028e-014
lhumerus -20.8253 -15.5249 74.12
lradius 48.669
lwrist -23.2363
lhand -44.2968 21.6675
lfingers 7.12502
lthumb -17.1069 50.9343
rfemur 2.35384 4.83949 24.9439
rtibia 28.4996
rfoot 16.6714 -21.8636
rtoes -2.19737
lfemur -13.1366 -21.5998 4.34771
ltibia 24.4484
lfoot -10.7632 4.18803
ltoes -13.6791
2504
root 0.893264 19.1446 2.47671 -6.73085 23.1762 -19.423
lowerback 4.41633 5.51276 0.261305
upperback -0.654403 7.2156 -6.19928
thorax -2.30458 3.57961 -7.01773
lowerneck -12.3186 -6.3563 -4.99881
upperneck -2.12593 -8.20876 17.8237
head 2.43599 -3.51855 5.75094
rclavicle -1.19271e-014 6.04305e-014
rhumerus 49.5505 -9.57483 -18.419
rradius 55.9002
rwrist 36.8073
rhand -51.2856 378.466
rfingers 7.12502
rthumb -23.8225 -10.077
lclavicle -1.19271e-014 6.04305e-014
lhumerus -20.9622 -15.6068 74.0526
lradius 48.5651
lwrist -23.101
lhand -44.524 22.1571
lfingers 7.12502
lthumb -17.3255 51.4049
rfemur 2.38526 5.0566 24.8798
rtibia 28.552
rfoot 17.3687 -21.4517
rtoes -2.32556
lfemur -13.111 -21.7684 4.30149
ltibia 24.3856
lfoot -10.7407 4.05557
ltoes -13.3715
2505
root 0.934465 19.1534 2.4856 -6.76254 23.4502 -19.4997
lowerback 4.44096 5.47854 0.341685
upperback -0.725814 7.16989 -6.27197
thorax -2.37883 3.55333 -7.14602
lowerneck -12.4169 -6.4372 -4.99048
upperneck -1.8079 -8.36636 17.7642
head 2.55952 -3.57954 5.71229
rclavicle -1.74931e-014 -2.54444e-014
rhumerus 50.3795 -11.7352 -20.8511
rradius 53.9643
rwrist 35.078
rhand -50.9005 376.775
rfingers 7.12502
rthumb -23.4531 -11.816
lclavicle -1.74931e-014 -2.54444e-014
lhumerus -21.0658 -15.7183 73.9334
lradius 48.4065
lwrist -23.0632
lhand -44.3884 22.2352
lfingers 7.12502
lthumb -17.1951 51.4944
rfemur 2.29773 5.24204 24.7508
rtibia 28.6441
rfoot 18.0729 -20.9908
rtoes -2.08209
lfemur -13.1212 -21.8848 4.22902
ltibia 24.319
lfoot -10.6856 3.93584
ltoes -13.2107
2506
root 0.972263 19.1608 2.49569 -6.83426 23.6426 -19.6356
lowerback 4.42833 5.48005 0.398068
upperback -0.75186 7.17483 -6.25112
thorax -2.39399 3.55439 -7.15602
lowerneck -12.4438 -6.58557 -5.20718
upperneck -1.66438 -8.56928 17.9206
head 2.64872 -3.66687 5.77746
rclavicle 6.59965e-014 -5.08889e-014
rhumerus 51.3782 -14.0126 -23.6117
rradius 52.1767
rwrist 33.2981
rhand -50.1603 375.098
rfingers 7.12502
rthumb -22.7429 -13.5817
lclavicle 6.59965e-014 -5.08889e-014
lhumerus -21.0572 -15.6947 73.9088
lradius 48.1927
lwrist -23.1374
lhand -44.0269 21.5107
lfingers 7.12502
lthumb -16.8471 50.7999
rfemur 2.19846 5.51071 24.7182
rtibia 28.7724
rfoot 18.7474 -20.5981
rtoes -1.87519
lfemur -13.0895 -21.9065 4.21953
ltibia 24.2475
lfoot -10.6236 3.79851
ltoes -13.1273
2507
root 1.0072 19.167 2.50474 -6.97782 23.8878 -19.714
lowerback 4.55526 5.46945 0.40053
upperback -0.733813 7.15814 -6.24064
thorax -2.44937 3.5449 -7.15942
lowerneck -12.4687 -6.69161 -5.42399
upperneck -1.63406 -8.69645 18.082
head 2.6965 -3.72137 5.85183
rclavicle -1.25632e-013 -1.27222e-014
rhumerus 52.5967 -16.3145 -26.4507
rradius 50.4742
rwrist 31.4244
rhand -49.083 373.5
rfingers 7.12502
rthumb -21.7087 -15.303
lclavicle -1.25632e-013 -1.27222e-014
lhumerus -21.0558 -15.7264 73.8664
lradius 48.0857
lwrist -23.0767
lhand -43.8772 21.1364
lfingers 7.12502
lthumb -16.703 50.4378
rfemur 2.18404 5.69273 24.6482
rtibia 28.9429
rfoot 19.3621 -20.3084
rtoes -1.29693
lfemur -12.9827 -21.9511 4.12673
ltibia 24.1551
lfoot -10.5844 3.61958
ltoes -13.236
2508
root 1.04449 19.1732 2.5124 -7.04278 24.1735 -19.6868
lowerback 4.64167 5.4299 0.3412
upperback -0.729009 7.09918 -6.27247
thorax -2.50319 3.51502 -7.16758
lowerneck -12.3483 -6.66199 -5.23276
upperneck -1.84059 -8.63758 17.7468
head 2.57911 -3.71881 5.72544
rclavicle -4.77083e-015 2.8625e-014
rhumerus 54.095 -18.4105 -29.1475
rradius 48.7357
rwrist 29.2196
rhand -48.337 371.738
rfingers 7.12502
rthumb -20.9922 -17.1461
lclavicle -4.77083e-015 2.8625e-014
lhumerus -21.1109 -15.7757 73.8064
lradius 48.0407
lwrist -22.8954
lhand -43.9026 21.2317
lfingers 7.12502
lthumb -16.7274 50.531
rfemur 2.10609 5.79735 24.4394
rtibia 29.1452
rfoot 20.0609 -20.0571
rtoes -0.412289
lfemur -12.929 -22.0442 3.92654
ltibia 24.0571
lfoot -10.5107 3.46452
ltoes -13.4766
2509
root 1.082 19.1783 2.52067 -7.0686 24.3942 -19.7031
lowerback 4.6266 5.42685 0.317062
upperback -0.739615 7.09392 -6.2708
thorax -2.50958 3.51247 -7.15118
lowerneck -12.2073 -6.69723 -5.10757
upperneck -2.00424 -8.66692 17.4041
head 2.4838 -3.7591 5.60061
rclavicle -1.35174e-014 1.04958e-013
rhumerus 55.765 -20.3904 -32.0546
rradius 47.0499
rwrist 26.9181
rhand -48.615 369.816
rfingers 7.12502
rthumb -21.2592 -19.0381
lclavicle -1.35174e-014 1.04958e-013
lhumerus -21.0789 -15.8439 73.816
lradius 47.8882
lwrist -22.6892
lhand -44.0663 21.3911
lfingers 7.12502
lthumb -16.885 50.6771
rfemur 1.94219 5.91404 24.263
rtibia 29.3733
rfoot 20.5806 -20.0259
rtoes 0.743102
lfemur -12.9062 -22.0986 3.80844
ltibia 23.9671
lfoot -10.4555 3.29224
ltoes -13.2847
2510
root 1.12124 19.1836 2.52962 -7.11719 24.5986 -19.7306
lowerback 4.63757 5.42732 0.392878
upperback -0.762869 7.09769 -6.30766
thorax -2.52553 3.51296 -7.23578
lowerneck -12.0971 -6.78466 -5.08269
upperneck -2.09054 -8.77468 17.2819
head 2.44351 -3.82561 5.55304
rclavicle -7.95139e-016 6.36111e-015
rhumerus 57.4798 -22.3084 -35.2301
rradius 45.6072
rwrist 25.0161
rhand -49.4264 368.671
rfingers 7.12502
rthumb -22.0385 -20.0935
lclavicle -7.95139e-016 6.36111e-015
lhumerus -21.0519 -15.9147 73.7929
lradius 47.7477
lwrist -22.587
lhand -44.2049 21.9277
lfingers 7.12502
lthumb -17.0184 51.2022
rfemur 1.81028 5.84655 24.065
rtibia 29.6022
rfoot 20.9615 -19.93
rtoes 1.49685
lfemur -12.8562 -22.1765 3.68985
ltibia 23.8896
lfoot -10.4672 3.12505
ltoes -12.994
